<svg version="1.1" id="Layer_1" xmlns="http://www.w3.org/2000/svg" xmlns:xlink="http://www.w3.org/1999/xlink" x="0px" y="0px"
	 width="100%" viewBox="0 0 256 240" enable-background="new 0 0 256 240" xml:space="preserve">
<path fill="#000000" opacity="1.000000" stroke="none" 
	d="
M63.153618,198.846817 
	C52.183487,187.887070 41.545998,177.092102 30.677940,166.534485 
	C27.671326,163.613754 28.330589,161.741669 30.942810,159.172287 
	C41.034912,149.245667 50.657280,138.813766 61.121700,129.304138 
	C67.028877,123.935944 67.074661,117.397888 67.569031,110.674416 
	C68.237900,101.577545 68.504524,92.489960 70.505676,83.490463 
	C74.675179,64.739555 94.655418,53.583252 112.490654,60.727261 
	C117.010696,62.537785 120.049431,62.385647 123.946274,58.950184 
	C138.954147,45.719238 155.037872,44.877319 171.882751,55.894238 
	C181.784332,62.370094 191.547607,69.075523 199.505920,77.965004 
	C207.326950,86.701157 212.228607,96.774200 211.083740,108.765442 
	C210.251343,117.483826 206.780609,125.480293 201.820099,132.690765 
	C184.535538,157.815216 160.918930,174.182404 131.794098,182.733383 
	C128.771332,183.620834 126.396637,185.090637 124.240204,187.266251 
	C113.809746,197.789383 103.340118,208.273804 92.862404,218.749969 
	C87.897385,223.714264 87.889915,223.677307 82.801888,218.553909 
	C76.348473,212.055634 69.868011,205.584198 63.153618,198.846817 
M159.030823,58.382290 
	C149.210693,53.984203 140.530701,56.694305 132.481232,62.780975 
	C129.432938,65.085960 126.410149,67.487198 123.711731,70.181107 
	C113.997856,79.878738 105.677658,90.660835 99.061630,102.725044 
	C97.722847,105.166290 96.675201,108.119057 92.753212,105.978188 
	C88.675468,103.752289 90.476425,101.338295 92.012146,98.586990 
	C96.901466,89.827591 102.636017,81.667870 108.993736,73.926132 
	C110.006020,72.693489 111.582367,71.709274 111.189133,69.744568 
	C100.219070,62.568340 80.667786,69.953186 78.310905,86.019318 
	C77.007935,94.901329 76.327934,103.873589 75.299728,112.797409 
	C74.541260,119.380074 75.855827,124.657257 81.187660,129.618439 
	C93.987183,141.528198 105.958412,154.322784 118.449371,166.571152 
	C129.142548,177.056641 124.849495,176.737000 139.124176,171.487671 
	C163.949326,162.358551 183.940308,146.742996 197.521057,123.778107 
	C205.770157,109.828957 204.514618,95.603355 194.045685,84.122711 
	C184.328354,73.466324 172.761002,65.017891 159.030823,58.382290 
M54.134064,165.386597 
	C52.117725,163.397736 49.939445,161.544968 48.125263,159.386215 
	C45.756817,156.567947 44.084576,157.757324 42.012573,159.756241 
	C39.862576,161.830429 39.067745,163.418167 41.670277,165.865326 
	C46.766129,170.656921 51.621723,175.705688 56.537777,180.686508 
	C66.701187,190.983841 76.839066,201.306381 86.850441,211.479355 
	C94.447372,206.787170 94.612892,205.998917 89.321182,200.619522 
	C84.414680,195.631699 79.324493,190.822495 74.477715,185.778488 
	C66.705719,177.690201 69.304970,166.587540 79.764023,162.468765 
	C85.421349,160.240921 89.872719,162.343124 93.719688,166.278366 
	C100.099243,172.804276 106.340645,179.465271 112.454781,185.874939 
	C116.005592,183.950958 117.842522,182.143616 119.116997,179.807709 
	C118.514046,177.599274 116.725693,176.495880 115.350113,175.113998 
	C102.182655,161.886169 88.964958,148.708359 75.775948,135.501938 
	C70.612961,130.332169 69.107635,130.623383 65.153786,138.635651 
	C69.381401,142.541245 73.860970,146.759323 78.435555,150.871689 
	C80.687691,152.896255 81.270973,154.603546 78.794724,157.051849 
	C76.361481,159.457611 74.584312,158.951324 72.505684,156.793167 
	C69.269730,153.433380 65.695259,150.370148 62.706902,146.809723 
	C59.745552,143.281448 57.400856,143.512299 54.837410,146.974030 
	C53.884323,148.261078 52.082905,148.954102 51.419041,151.556030 
	C55.560738,156.118301 60.116409,160.245087 64.712662,164.326172 
	C67.147049,166.487686 67.540001,168.412445 64.953888,170.956085 
	C62.296993,173.569351 60.643661,172.241806 58.788280,170.195633 
	C57.446121,168.715469 56.017567,167.313660 54.134064,165.386597 
M101.567047,197.958588 
	C107.624428,192.064560 107.661179,192.028763 101.918427,186.131546 
	C97.621170,181.718658 93.199844,177.426865 88.860435,173.054688 
	C86.290565,170.465408 83.738976,168.685684 80.361488,171.978378 
	C76.882240,175.370270 78.351654,178.133026 81.163681,180.907578 
	C86.377480,186.051910 91.548836,191.239227 96.749138,196.397263 
	C97.914108,197.552811 98.975998,198.997238 101.567047,197.958588 
z"/>
</svg>