<svg width="66" height="66" viewBox="0 0 66 66" fill="none" xmlns="http://www.w3.org/2000/svg">
<path d="M32.9063 0C26.398 0 20.0359 1.92992 14.6245 5.5457C9.21313 9.16149 4.99545 14.3007 2.50485 20.3136C0.0142578 26.3264 -0.637396 32.9428 0.632299 39.3259C1.90199 45.7091 5.03601 51.5725 9.63803 56.1745C14.2401 60.7765 20.1034 63.9105 26.4866 65.1802C32.8698 66.4499 39.4861 65.7983 45.4989 63.3077C51.5118 60.8171 56.651 56.5994 60.2668 51.188C63.8826 45.7766 65.8125 39.4145 65.8125 32.9062C65.8033 24.1818 62.3334 15.8173 56.1643 9.64819C49.9952 3.47907 41.6307 0.00921318 32.9063 0ZM32.9063 60.75C27.3993 60.75 22.016 59.117 17.4371 56.0575C12.8582 52.998 9.28942 48.6494 7.18199 43.5616C5.07457 38.4738 4.52317 32.8754 5.59752 27.4742C6.67188 22.073 9.32374 17.1118 13.2178 13.2177C17.1118 9.32373 22.0731 6.67187 27.4742 5.59751C32.8754 4.52315 38.4738 5.07455 43.5616 7.18198C48.6494 9.28941 52.998 12.8582 56.0575 17.4371C59.117 22.016 60.75 27.3993 60.75 32.9062C60.7416 40.2883 57.8054 47.3656 52.5855 52.5855C47.3656 57.8054 40.2883 60.7416 32.9063 60.75ZM48.1697 30.761L27.9197 18.1048C27.5366 17.8653 27.0965 17.7328 26.6449 17.7209C26.1933 17.709 25.7468 17.8181 25.3516 18.037C24.9565 18.2559 24.6271 18.5766 24.3977 18.9657C24.1682 19.3548 24.0471 19.7983 24.0469 20.25V45.5625C24.0471 46.0142 24.1682 46.4577 24.3977 46.8468C24.6271 47.236 24.9565 47.5566 25.3516 47.7755C25.7468 47.9944 26.1933 48.1035 26.6449 48.0916C27.0965 48.0797 27.5366 47.9472 27.9197 47.7077L48.1697 35.0515C48.5332 34.8238 48.8329 34.5075 49.0406 34.1323C49.2484 33.757 49.3574 33.3352 49.3574 32.9062C49.3574 32.4773 49.2484 32.0555 49.0406 31.6802C48.8329 31.305 48.5332 30.9887 48.1697 30.761ZM29.1094 40.9968V24.8157L42.0536 32.9062L29.1094 40.9968Z" fill="black"/>
</svg>
