<svg version="1.1" id="Layer_1" xmlns="http://www.w3.org/2000/svg" xmlns:xlink="http://www.w3.org/1999/xlink" x="0px" y="0px"
	 width="100%" viewBox="0 0 704 608" enable-background="new 0 0 704 608" xml:space="preserve">
<path fill="#000000" opacity="1.000000" stroke="none" 
	d="
M416.450073,398.478027 
	C415.058075,400.571442 413.728943,402.311035 412.777374,404.237122 
	C410.846222,408.146027 410.085510,411.258179 414.741241,414.742706 
	C422.902100,420.850616 425.235474,432.709351 420.980316,442.412506 
	C419.520752,445.740723 419.261078,448.390625 420.842316,451.784882 
	C424.029938,458.627563 423.935669,465.713470 420.424835,472.507355 
	C419.142944,474.987976 419.218140,477.110687 420.464844,479.566498 
	C428.727264,495.841766 416.276031,515.174683 398.635590,514.413269 
	C394.972321,514.255127 393.036407,516.005920 391.418182,519.260010 
	C384.756348,532.656433 373.870483,539.861877 358.795166,540.149292 
	C351.647003,540.285583 344.469238,540.726868 337.341644,539.619202 
	C325.192841,537.731201 316.415192,530.904785 311.220154,520.126465 
	C309.077606,515.681274 306.490631,514.581665 302.165283,514.352234 
	C289.897430,513.701416 281.294464,505.872192 279.220642,493.871185 
	C278.335571,488.749146 279.374359,483.901733 281.669952,479.347076 
	C282.789490,477.125854 283.150391,475.354156 281.848602,472.895142 
	C277.831726,465.307312 277.988922,457.507843 282.001312,449.923035 
	C282.979431,448.073975 282.858887,446.727417 282.034729,444.856934 
	C276.229889,431.682343 278.368744,422.446716 289.422394,412.922089 
	C291.103790,411.473267 291.374908,410.226868 290.774414,408.193756 
	C288.798981,401.505341 284.377869,396.593018 279.423645,392.053314 
	C272.063385,385.308746 264.093170,379.246796 257.608826,371.533783 
	C236.987778,347.005280 227.563049,318.591339 229.867737,286.857971 
	C234.266144,226.295578 279.672607,181.704910 335.742371,174.569702 
	C399.613495,166.441742 460.956329,209.811172 470.885254,276.918091 
	C477.342621,320.561646 462.992523,357.278839 429.280243,386.097717 
	C424.838715,389.894592 420.610229,393.888184 416.450073,398.478027 
M278.282196,224.775635 
	C274.630035,229.314606 270.594818,233.599213 267.385468,238.432251 
	C238.045242,282.616272 245.472702,335.697388 285.624695,370.321106 
	C296.942963,380.081024 307.677521,390.319824 311.053619,405.804779 
	C311.308258,406.972717 311.772125,408.331329 313.090424,408.361877 
	C318.437256,408.485779 323.788635,408.413391 329.778717,408.413391 
	C325.162964,397.751129 320.117737,388.573639 314.870331,379.497314 
	C307.527771,366.797119 300.290344,354.090179 297.183441,339.471466 
	C290.517761,308.107635 316.593018,283.607452 347.314636,292.620361 
	C350.238647,293.478180 352.740326,293.135193 355.526031,292.312225 
	C382.695953,284.285339 408.669556,305.041779 405.525177,333.888916 
	C404.496857,343.322968 401.532227,352.040436 397.476318,360.489594 
	C390.478729,375.066650 381.251740,388.450684 374.606903,403.212830 
	C373.909912,404.761200 372.303253,406.192719 373.552521,408.624481 
	C377.711182,408.624481 382.022522,408.514801 386.324951,408.663330 
	C389.152985,408.760986 390.558624,407.610657 391.227875,404.880463 
	C392.666809,399.010376 395.121033,393.586426 398.611450,388.594025 
	C404.027863,380.846802 411.265625,374.941589 418.187561,368.698120 
	C447.973816,341.831360 459.282074,308.541565 448.953339,269.852112 
	C428.973053,195.009598 336.722137,166.866104 278.282196,224.775635 
M332.449890,369.102570 
	C339.196747,380.428040 344.789001,392.382507 351.195404,405.468750 
	C359.515015,385.531189 370.350403,368.678192 379.446350,350.902283 
	C382.505096,344.924744 384.502777,338.569885 385.416016,331.915894 
	C386.768829,322.059204 380.515045,313.196167 370.406464,311.654510 
	C373.840210,318.386719 375.094452,325.188538 373.970978,332.199463 
	C372.784271,339.605255 369.207977,345.674652 362.750793,349.753662 
	C355.142639,354.559784 345.008057,354.403351 337.848938,348.693420 
	C325.213928,338.616119 325.954559,325.626373 331.044952,311.962799 
	C323.990723,312.769073 319.041260,317.225861 317.296783,323.991272 
	C315.915070,329.349701 316.688019,334.586273 318.211731,339.742889 
	C321.262604,350.068115 326.717468,359.250610 332.449890,369.102570 
M306.788818,465.779266 
	C335.581757,465.780853 364.374664,465.786774 393.167603,465.774658 
	C395.161224,465.773804 397.178467,465.802155 399.141693,465.518829 
	C401.087219,465.238007 402.515320,464.120728 402.679443,461.934631 
	C402.862823,459.492493 401.405884,458.157013 399.314941,457.657837 
	C397.726929,457.278809 396.012787,457.354950 394.354675,457.353760 
	C365.228821,457.332550 336.102936,457.327057 306.977081,457.334778 
	C305.484222,457.335175 303.943756,457.280609 302.510254,457.615082 
	C300.564667,458.069092 299.359711,459.399902 299.321106,461.541504 
	C299.282349,463.690948 300.405945,465.018616 302.400574,465.505524 
	C303.514160,465.777344 304.713776,465.696747 306.788818,465.779266 
M348.500000,486.252563 
	C345.672058,486.252075 342.844116,486.252899 340.016174,486.250885 
	C328.205627,486.242523 316.395050,486.216064 304.584564,486.237305 
	C301.863464,486.242188 299.463196,487.003113 299.364685,490.274597 
	C299.267242,493.512970 301.527496,494.459076 304.293030,494.644348 
	C305.121979,494.699890 305.955597,494.701630 306.787079,494.701508 
	C336.230621,494.697021 365.674133,494.694580 395.117676,494.666840 
	C396.604706,494.665436 398.137634,494.628754 399.567200,494.276093 
	C401.504517,493.798187 402.744904,492.513977 402.694305,490.336029 
	C402.643585,488.152344 401.301331,486.936951 399.378021,486.537415 
	C397.771698,486.203766 396.072235,486.247864 394.413910,486.246429 
	C379.442596,486.233307 364.471313,486.247040 348.500000,486.252563 
M386.489746,429.105682 
	C362.519440,429.094238 338.549103,429.079590 314.578796,429.074860 
	C311.083649,429.074188 307.587738,429.084290 304.093597,429.157928 
	C301.529633,429.211975 299.332764,429.959900 299.406342,433.066132 
	C299.478424,436.108582 301.690002,436.816650 304.228577,436.934631 
	C305.391724,436.988708 306.558197,436.984039 307.723175,436.983887 
	C336.687256,436.980591 365.651367,436.975830 394.615448,436.963867 
	C395.945923,436.963318 397.282104,436.957642 398.605560,436.840546 
	C400.824219,436.644196 402.535522,435.645752 402.589569,433.212494 
	C402.648468,430.559784 400.959839,429.289062 398.466797,429.208527 
	C394.808380,429.090240 391.144775,429.132507 386.489746,429.105682 
M335.003540,514.554871 
	C334.262146,514.740723 333.328217,514.477783 332.912659,515.436340 
	C338.857117,521.778076 362.717529,521.912231 369.702240,514.494873 
	C357.643799,514.494873 346.649719,514.494873 335.003540,514.554871 
M348.311676,325.047577 
	C348.281769,326.206665 348.184113,327.368866 348.237793,328.524078 
	C348.319153,330.275543 348.818237,332.124054 350.790375,332.247711 
	C353.162384,332.396515 353.688721,330.381012 353.764465,328.465088 
	C353.887421,325.356079 353.986908,322.198212 350.945221,319.955994 
	C349.439148,321.165161 348.897247,322.705872 348.311676,325.047577 
z"/>
<path fill="#000000" opacity="1.000000" stroke="none" 
	d="
M248.958817,97.104095 
	C254.091354,105.907539 259.099670,114.362381 263.948700,122.907616 
	C267.567139,129.284241 266.374176,135.060623 261.052277,138.066589 
	C255.664093,141.110001 249.955811,139.271713 246.341797,133.107117 
	C239.350967,121.182480 232.407257,109.229202 225.564926,97.218918 
	C222.028503,91.011505 223.366974,85.011101 228.667542,82.038727 
	C234.058762,79.015526 239.489395,80.946632 243.263535,87.281425 
	C245.138321,90.428215 246.934494,93.621857 248.958817,97.104095 
z"/>
<path fill="#000000" opacity="1.000000" stroke="none" 
	d="
M157.867798,171.051331 
	C168.856277,177.371124 179.565414,183.436325 190.179626,189.663345 
	C195.946411,193.046570 197.722900,198.247192 195.256836,203.530228 
	C192.905579,208.567307 187.284500,211.009491 182.283783,208.238419 
	C168.615616,200.664474 155.101547,192.800369 141.710922,184.744537 
	C137.360947,182.127594 136.437851,176.755234 138.670883,172.345490 
	C140.973053,167.799210 146.007797,165.678284 150.902252,167.475845 
	C153.219986,168.327072 155.339554,169.717850 157.867798,171.051331 
z"/>
<path fill="#000000" opacity="1.000000" stroke="none" 
	d="
M108.123985,288.229736 
	C111.119537,284.741058 114.889839,284.070496 118.761940,284.049377 
	C131.721268,283.978638 144.683960,283.891907 157.640228,284.112854 
	C166.253189,284.259705 171.035950,288.150269 171.066772,294.325134 
	C171.097412,300.462189 165.774124,304.277924 157.026505,304.298462 
	C143.734344,304.329681 130.440323,304.445557 117.150467,304.269928 
	C107.736252,304.145508 103.662460,297.010132 108.123985,288.229736 
z"/>
<path fill="#000000" opacity="1.000000" stroke="none" 
	d="
M361.164764,89.997139 
	C361.163544,94.656136 361.294250,98.821182 361.127747,102.974319 
	C360.874420,109.292015 356.662140,113.965950 351.271973,114.186951 
	C345.806396,114.411041 341.173553,110.092484 341.036713,103.507919 
	C340.736053,89.039124 340.757935,74.556953 341.006439,60.086395 
	C341.120758,53.430550 345.438263,49.142464 350.983459,49.111275 
	C356.452606,49.080513 360.806274,53.444069 361.014740,60.050232 
	C361.324158,69.857910 361.138519,79.681206 361.164764,89.997139 
z"/>
<path fill="#000000" opacity="1.000000" stroke="none" 
	d="
M146.672195,400.608063 
	C158.112259,394.035004 169.251236,387.673798 180.331802,381.212402 
	C184.101746,379.014038 187.743744,378.432587 191.575241,380.967377 
	C197.893631,385.147430 197.907272,393.743622 191.199402,398.008728 
	C183.474213,402.920654 175.442169,407.352112 167.516708,411.946167 
	C162.617722,414.785889 157.749771,417.696381 152.721085,420.290466 
	C147.124603,423.177490 141.827820,421.643219 138.959137,416.655365 
	C136.125793,411.728973 137.635513,406.481232 142.948746,402.884827 
	C144.051437,402.138428 145.213547,401.479797 146.672195,400.608063 
z"/>
<path fill="#000000" opacity="1.000000" stroke="none" 
	d="
M458.812378,127.731003 
	C457.529541,129.912842 456.485321,131.812546 455.320099,133.634903 
	C451.793579,139.150543 446.234711,140.931519 441.243988,138.199203 
	C435.939240,135.294952 434.475006,129.698044 437.794769,123.547989 
	C441.352661,116.956795 445.219971,110.531960 448.982819,104.052261 
	C452.327637,98.292465 455.618164,92.497818 459.109100,86.827171 
	C462.686920,81.015312 468.064484,79.215485 473.023499,81.909729 
	C478.194061,84.718910 479.768677,90.538757 476.476105,96.560089 
	C470.805695,106.930069 464.838409,117.137733 458.812378,127.731003 
z"/>
<path fill="#000000" opacity="1.000000" stroke="none" 
	d="
M514.420654,379.454346 
	C517.427429,379.073639 519.717712,380.147980 521.876892,381.388672 
	C534.285583,388.518951 546.655884,395.716095 559.037720,402.892944 
	C563.287354,405.356110 565.013855,409.104797 564.136108,413.849152 
	C563.366089,418.011078 560.522156,420.429077 556.551025,421.635437 
	C553.763245,422.482300 551.247009,421.643799 548.908447,420.291077 
	C536.377075,413.042236 523.864563,405.760284 511.384430,398.423737 
	C507.677948,396.244843 505.352661,393.027039 505.911285,388.553284 
	C506.506989,383.782684 509.385254,380.775543 514.420654,379.454346 
z"/>
<path fill="#000000" opacity="1.000000" stroke="none" 
	d="
M512.474121,189.407913 
	C524.892822,182.235535 536.985718,175.233093 549.120422,168.303802 
	C552.924622,166.131485 556.765259,166.184250 560.372314,168.843338 
	C563.641357,171.253265 564.719421,174.594330 564.219543,178.524567 
	C563.750427,182.213028 561.249329,184.384094 558.308838,186.102753 
	C546.388123,193.070236 534.477051,200.056580 522.473022,206.878632 
	C515.852783,210.641006 510.453796,209.586761 507.233917,204.289215 
	C504.108398,199.146820 505.827301,194.027771 512.474121,189.407913 
z"/>
<path fill="#000000" opacity="1.000000" stroke="none" 
	d="
M531.912659,297.789978 
	C530.300598,290.474854 533.171997,285.275909 539.880554,284.725403 
	C555.812256,283.418121 571.800293,283.539673 587.742188,284.785309 
	C592.181641,285.132202 595.592407,289.186035 595.823669,293.658417 
	C596.066772,298.359711 593.634399,301.611053 589.416504,303.364075 
	C587.785156,304.042084 585.854919,304.237244 584.059021,304.245605 
	C570.406921,304.309052 556.754333,304.262085 543.101929,304.270874 
	C538.270264,304.273987 534.228333,302.907990 531.912659,297.789978 
z"/>
</svg>