<svg version="1.1" id="Layer_1" xmlns="http://www.w3.org/2000/svg" xmlns:xlink="http://www.w3.org/1999/xlink" x="0px" y="0px"
	 width="100%" viewBox="0 0 896 784" enable-background="new 0 0 896 784" xml:space="preserve">
<path fill="#000000" opacity="1.000000" stroke="none" 
	d="
M680.480225,562.494202 
	C670.263428,571.111755 659.795593,578.790100 648.737488,585.642090 
	C641.074463,590.390381 640.939758,590.842346 646.140259,598.609497 
	C657.986023,616.301453 672.091736,631.904480 688.548279,645.459351 
	C699.765930,654.698975 711.641479,662.915955 724.144592,670.274231 
	C730.832642,674.210449 733.377319,679.090942 732.100464,685.431641 
	C730.984802,690.971802 725.941284,694.954041 718.716858,695.359314 
	C695.087036,696.684998 671.484436,696.919861 647.870056,694.468506 
	C628.673279,692.475708 609.632935,689.647705 590.847290,685.316345 
	C553.508911,676.707336 518.007935,663.254578 484.864136,643.903015 
	C480.998352,641.645935 477.209778,641.001648 472.975372,641.529175 
	C454.547974,643.824951 436.177155,643.045105 417.672302,641.789185 
	C399.855682,640.579895 382.239044,638.388977 364.789764,634.984314 
	C347.001434,631.513550 329.538269,626.558105 312.492035,620.352478 
	C287.072235,611.098633 262.809296,599.424500 240.099991,584.650269 
	C197.272873,556.787659 162.604721,521.349426 139.080780,475.604553 
	C127.657959,453.391632 119.918137,429.854889 116.208580,405.247498 
	C113.429375,386.811584 113.111870,368.147095 115.133530,349.446411 
	C121.390312,291.569946 147.381378,243.602097 187.601929,202.482422 
	C219.203262,170.174606 256.579407,146.648132 298.095398,129.546051 
	C321.439484,119.929695 345.687836,113.186287 370.571014,108.456650 
	C406.311890,101.663246 442.304962,100.198288 478.380585,103.039879 
	C526.026550,106.792839 571.652100,118.848198 614.683777,139.970901 
	C661.053284,162.732025 700.565186,193.900848 730.992981,235.956528 
	C750.127319,262.403015 763.667725,291.540039 770.766357,323.430634 
	C776.113403,347.452393 777.380737,371.739899 774.731995,396.345764 
	C768.590149,453.401978 742.782837,500.618988 703.520325,541.297363 
	C696.347900,548.728394 688.769226,555.741760 680.480225,562.494202 
M174.746475,308.225677 
	C166.139175,331.720856 161.760437,355.825562 163.100983,380.982086 
	C164.147079,400.612885 168.307983,419.468964 175.465210,437.664764 
	C190.118423,474.917603 214.635422,504.701996 245.821091,529.270813 
	C270.491455,548.706787 297.911652,563.215576 327.373718,573.917114 
	C344.098724,579.992249 361.212769,584.634949 378.724915,587.933838 
	C389.197357,589.906738 399.731354,591.152527 410.301880,592.282104 
	C433.385590,594.748901 456.478394,594.816406 479.542328,592.240295 
	C487.180634,591.387146 493.863647,592.052124 500.801514,596.435913 
	C534.322327,617.616394 570.944214,631.226624 609.693237,639.279724 
	C610.950195,639.540955 612.272827,640.230896 613.294678,638.833435 
	C613.713867,637.435364 612.748108,636.577515 612.100220,635.673584 
	C598.962891,617.345825 589.033936,597.108459 577.534546,577.806641 
	C575.405640,574.233337 575.894226,572.411316 579.469788,570.290833 
	C594.212708,561.547363 608.939392,552.760193 623.404358,543.567810 
	C654.038696,524.099792 679.784302,499.613434 699.182495,468.707428 
	C710.708435,450.343903 718.906616,430.511322 723.404358,409.439911 
	C727.932678,388.225067 728.681335,366.731934 725.102234,345.059845 
	C722.092407,326.834625 716.637634,309.534424 708.605164,293.040161 
	C693.602722,262.233704 671.665405,237.079620 644.910400,215.913467 
	C609.269226,187.717422 568.783508,169.723206 524.793945,159.487579 
	C494.207550,152.370667 463.133881,149.496262 431.666992,150.906097 
	C413.336060,151.727371 395.166412,153.559875 377.169861,157.079300 
	C352.599213,161.884369 328.794922,169.215439 305.952393,179.468567 
	C281.070374,190.637161 257.969025,204.729080 237.167450,222.464294 
	C209.705460,245.878067 188.526733,273.878265 174.746475,308.225677 
z"/>
<path fill="#000000" opacity="1.000000" stroke="none" 
	d="
M426.418488,378.538452 
	C435.767426,365.824677 447.801239,356.742706 460.598663,348.461456 
	C471.056458,341.694122 480.527679,333.722504 485.704712,322.031036 
	C495.985535,298.813354 486.765350,276.922699 461.199097,269.070923 
	C451.682220,266.148163 442.011505,265.118683 432.135864,267.325989 
	C411.573120,271.921906 400.484192,285.325256 396.056244,305.329987 
	C394.255951,313.463196 394.374115,317.754547 382.193024,316.210236 
	C381.533813,316.126678 380.853119,316.196716 380.198975,316.092010 
	C368.236450,314.177338 356.262238,312.329773 344.322571,310.281250 
	C339.109955,309.386932 336.662750,305.784729 337.038147,300.682037 
	C338.699890,278.094299 347.952972,258.991058 364.209198,243.491714 
	C375.162994,233.047943 388.245636,226.086533 402.762512,221.307831 
	C417.986755,216.296280 433.558380,213.772858 449.324982,214.127167 
	C475.005707,214.704254 499.542542,220.414017 520.564453,236.259064 
	C543.923157,253.865402 555.096191,277.159180 553.032288,306.760132 
	C551.837646,323.894531 547.836975,339.841827 537.790405,354.014679 
	C528.547241,367.054138 515.940857,376.200775 502.812469,384.826141 
	C494.903870,390.022064 486.679901,394.874573 480.731812,402.546478 
	C475.915314,408.758850 472.887787,415.570068 473.108398,423.627289 
	C473.240570,428.454254 473.198181,433.291016 473.067444,438.118866 
	C472.901367,444.251434 469.977234,447.818542 464.051605,447.936340 
	C450.397949,448.207764 436.731689,448.186523 423.077515,447.923920 
	C417.658508,447.819702 414.258148,444.719727 413.980255,439.712402 
	C412.989899,421.864624 413.017822,404.089630 421.322968,387.536316 
	C422.812958,384.566528 424.580200,381.735870 426.418488,378.538452 
z"/>
<path fill="#000000" opacity="1.000000" stroke="none" 
	d="
M475.809814,487.393494 
	C484.809387,505.654388 479.218903,525.919006 462.120331,535.824158 
	C449.588928,543.083618 436.596954,542.819031 424.384003,534.900818 
	C412.183533,526.990723 406.673309,515.386536 408.015106,500.847351 
	C409.763641,481.900330 425.033569,468.853790 443.171722,468.359039 
	C457.161926,467.977448 468.406036,474.576050 475.809814,487.393494 
z"/>
</svg>